# xmcd
#
# Track frame offsets: 
#        150
#        13005
#        26052
#        40057
#        55184
#        71885
#        85110
#        107608
#        118449
#        134238
#        154153
#        168206
#        182587
#        193947
#        206583
#        219186
#
# Disc length: 3069 seconds
#
# Revision: 0
# Processed by: cddbd v1.5.2PL0 Copyright (c) Steve Scherf et al.
# Submitted via: ExactAudioCopy v1.1
#
DISCID=e80bfb10
DTITLE=Various Artist - Eccentric Soul - Sitting In The Park
DYEAR=2015
DGENRE=Soul
TTITLE0=Cindy and The Playmates - A Portrait Of God Love
TTITLE1=Shades Of Brown - How Could You Love Him
TTITLE2=The Mist - The Girl In The Window
TTITLE3=Puzzle People - Reach For The Truth
TTITLE4=Enchanters - A Fool Like Me
TTITLE5=Oneness - Hard To Know You
TTITLE6=Procedures - Give Me One More Chance
TTITLE7=Master Plan - Try It
TTITLE8=Chocolate Sunday - Second Story Man
TTITLE9=The Krash Band - So I Can Make This Change
TTITLE10=Ahead Of Our Time - It Ain't Fair (Pt. 1)
TTITLE11=Cliff Curry - Let Love Come In
TTITLE12=Walter and The Admerations - Life Of Tears
TTITLE13=The Auditions - Returning Home From Vietnam
TTITLE14=Dontells - Moaning And Crying
TTITLE15=Otis Brown and The Delights - Southside Chicago
EXTD=
EXTT0=
EXTT1=
EXTT2=
EXTT3=
EXTT4=
EXTT5=
EXTT6=
EXTT7=
EXTT8=
EXTT9=
EXTT10=
EXTT11=
EXTT12=
EXTT13=
EXTT14=
EXTT15=
PLAYORDER=
